<?xml version="1.0" encoding="utf-8"?>
<!-- Generator: Adobe Illustrator 25.3.1, SVG Export Plug-In . SVG Version: 6.00 Build 0)  -->
<svg version="1.1" id="Capa_1" xmlns="http://www.w3.org/2000/svg" xmlns:xlink="http://www.w3.org/1999/xlink" x="0px" y="0px"
	 viewBox="0 0 896.9 895" style="enable-background:new 0 0 896.9 895;" xml:space="preserve">
<style type="text/css">
	.st0{fill:#10B7A8;}
	.st1{fill:#69CBF0;}
	.st2{fill:#ADD653;}
	.st3{fill:#E26289;}
	.st4{fill:#F2964D;}
	.st5{fill:#FFFFFF;stroke:#FFFFFF;stroke-width:3;stroke-miterlimit:10;}
</style>
<path class="st0" d="M852,887.1H46.8c-20.4,0-37-16.5-37-37V44.9c0-20.4,16.5-37,37-37H852c20.4,0,37,16.5,37,37v805.3
	C889,870.6,872.5,887.1,852,887.1z"/>
<g>
	<g>
		<g>
			<g>
				<path class="st0" d="M-2272.2,536.8c-0.5,0-1-0.1-1.5-0.2c-11.2-1.8-19.4-11.6-19.2-22.9c0.1-6.4,2.8-12.3,7.6-16.6
					c4.7-4.2,11-6.3,17.3-5.7c6.2,0.6,11.8,3.4,15.8,7.5c4.7-3.3,10.7-4.9,16.7-4.4c12.9,1.2,22.4,12.4,21.2,24.9
					c-1.2,12.5-12.6,21.7-25.5,20.5c-5.2-0.5-10-2.6-13.9-6.2c-0.6-0.5-1.1-1.1-1.7-1.7C-2260,535.5-2266.1,537.3-2272.2,536.8z
					 M-2268,492.3c-6-0.6-12.1,1.4-16.6,5.4c-4.6,4.1-7.2,9.7-7.3,15.9c-0.2,10.8,7.7,20.2,18.3,21.9c6.4,1,12.7-0.7,17.5-4.4
					c-2.5-3-4.2-6.6-4.9-10.4c-0.3-1.7,0.3-3.5,1.7-4.4c0.8-0.6,1.7-0.8,2.7-0.7c0.1,0,1.8,0.2,2.8,1.3c0.5-0.4,1.5-0.9,3-0.7
					c2,0.2,2.8,1.4,3.1,2.5c0.3,1,0.3,2.1-0.1,3.2c-1.4,3.8-3.8,7-6.8,9.6c3.7,4.1,9,6.9,14.9,7.5c12.3,1.2,23.3-7.6,24.4-19.6
					c1.1-12-7.9-22.7-20.3-23.8c-5.7-0.5-11.4,1-15.9,4.1c2.2,2.5,3.9,5.5,4.7,8.7c0.4,1.6,0.2,3.3-0.5,4.7
					c-0.5,0.9-1.1,1.5-1.9,1.9c-1.9,0.9-3.9-0.4-4.6-1c-1.2,0.9-3,0.8-3.1,0.8c-1.3-0.1-2.4-0.8-3-1.9c-0.7-1.2-0.8-2.7-0.3-4.1
					c1.5-3.6,4-6.8,7.2-9.2C-2256.8,495.5-2262.1,492.9-2268,492.3z M-2256.7,516.7c-0.7-0.1-1.4,0.1-2,0.5c-1,0.7-1.5,2.1-1.3,3.4
					c0.7,3.7,2.3,7.1,4.7,10c2.9-2.4,5.2-5.5,6.5-9.1c0.3-0.8,0.3-1.7,0.1-2.5c-0.4-1.1-1.1-1.7-2.3-1.8c-1.3-0.1-2.1,0.3-2.4,0.6
					c-0.2,0.1-0.4,0.2-0.6,0.2s-0.4-0.1-0.5-0.3C-2255.1,516.8-2256.6,516.7-2256.7,516.7z M-2252.3,500.1c-3.1,2.3-5.5,5.3-7,8.8
					c-0.4,1.1-0.4,2.3,0.2,3.2c0.5,0.8,1.3,1.3,2.3,1.4c0,0,1.6,0.1,2.4-0.6c0.3-0.3,0.7-0.3,1.1,0c0.5,0.4,2.2,1.7,3.7,1
					c0.6-0.3,1.1-0.8,1.4-1.5c0.6-1.1,0.8-2.6,0.4-4C-2248.5,505.4-2250.1,502.5-2252.3,500.1z"/>
			</g>
			<g>
				<path class="st0" d="M-2278.1,493.4l-0.1-0.5c-2.5-9,3.8-12.3,5.7-13l0,0c0.3-0.1,0.6-0.1,0.9,0c0.3,0.1,0.5,0.4,0.6,0.6l3,8.3
					c0.1,0.3,0.1,0.6-0.1,0.9c-0.1,0.3-0.4,0.5-0.7,0.6L-2278.1,493.4z M-2272.1,480.8c-2.2,0.9-7.1,3.8-5.3,11.3l8.3-2.8
					c0,0,0.1,0,0.1-0.1c0,0,0,0,0-0.1l-3-8.3C-2272,480.8-2272,480.8-2272.1,480.8C-2272,480.8-2272.1,480.8-2272.1,480.8
					L-2272.1,480.8z"/>
			</g>
			<g>
				<path class="st0" d="M-2286.9,496.7c-0.1,0-0.2,0-0.4-0.1c-0.3-0.1-0.5-0.4-0.6-0.6l-3-8.3c-0.1-0.3-0.1-0.6,0-0.9
					c0.1-0.3,0.4-0.5,0.7-0.6l0,0c2-0.7,8.9-2.2,12.8,6.3l0.2,0.5l-9.2,3.6C-2286.5,496.7-2286.7,496.7-2286.9,496.7z
					 M-2289.9,487.1C-2289.9,487.2-2289.9,487.2-2289.9,487.1c-0.1,0.1-0.1,0.1-0.1,0.1l3,8.3c0,0,0,0.1,0.1,0.1s0.1,0,0.1,0
					l8.2-3.2C-2282,485.4-2287.6,486.4-2289.9,487.1L-2289.9,487.1z"/>
			</g>
			<g>
				<path class="st0" d="M-2222.7,545.3c-2.7-0.3-6-1.8-8.2-6.8l-0.2-0.5l9-3.4c0.3-0.1,0.6-0.1,0.9,0c0.3,0.1,0.5,0.4,0.6,0.7
					l2.8,8.1c0.1,0.3,0.1,0.6-0.1,0.9c-0.1,0.3-0.4,0.5-0.7,0.6l0,0C-2219.4,545.1-2221,545.5-2222.7,545.3z M-2229.8,538.6
					c3.2,6.8,8.6,6,10.9,5.3l0,0c0,0,0.1,0,0.1-0.1c0,0,0,0,0-0.1l-2.8-8.1c0,0,0-0.1-0.1-0.1s-0.1,0-0.1,0L-2229.8,538.6z"/>
			</g>
			<g>
				<path class="st0" d="M-2236.4,551c-0.1,0-0.3,0-0.4-0.1c-0.3-0.1-0.5-0.4-0.6-0.7l-2.8-8.1c-0.1-0.3-0.1-0.6,0.1-0.9
					c0.1-0.3,0.4-0.5,0.7-0.6l9.1-2.9l0.1,0.5c2.3,8.7-3.8,11.8-5.8,12.6l0,0C-2236,551-2236.2,551-2236.4,551z M-2230.9,539.1
					l-8.1,2.6c0,0-0.1,0-0.1,0.1c0,0,0,0,0,0.1l2.8,8.1c0,0,0,0.1,0.1,0.1s0.1,0,0.1,0C-2234,549.1-2229.3,546.4-2230.9,539.1z"/>
			</g>
			<g>
				<path class="st0" d="M-2278.2,506.3c-0.3,0-0.5-0.3-0.4-0.5c0.1-0.6-0.1-1.2-0.4-1.6c-0.3-0.4-0.8-0.6-1.3-0.6
					c-0.9-0.1-1.9,0.4-2.1,1.8c0,0.3-0.3,0.5-0.6,0.5s-0.5-0.3-0.4-0.5c0.2-2,1.7-2.9,3.2-2.7c1.4,0.1,2.8,1.3,2.6,3.3
					C-2277.7,506.1-2277.9,506.3-2278.2,506.3z"/>
			</g>
			<g>
				<path class="st0" d="M-2262.3,509.1c-0.3,0-0.5-0.3-0.4-0.5c0.1-0.6-0.1-1.2-0.4-1.6c-0.3-0.4-0.8-0.6-1.3-0.6
					c-0.9-0.1-1.9,0.4-2.1,1.8c0,0.3-0.3,0.5-0.6,0.5s-0.5-0.3-0.4-0.5c0.2-2,1.7-2.9,3.2-2.7c1.4,0.1,2.8,1.3,2.6,3.3
					C-2261.8,508.9-2262,509.1-2262.3,509.1z"/>
			</g>
			<g>
				<path class="st0" d="M-2274.4,521.3c-0.3,0-0.5-0.1-0.7-0.1c-2.3-0.4-4.3-1.7-5.6-3.5c-1.5-2.1-2-4.8-1.5-7.7
					c0.1-0.3,0.3-0.5,0.6-0.4c0.3,0,0.5,0.3,0.4,0.6c-0.5,2.7,0,5.1,1.3,7c1.2,1.6,2.9,2.7,5,3.1c3.8,0.7,8.3-1.3,9.4-7.3
					c0.1-0.3,0.3-0.5,0.6-0.4s0.5,0.3,0.4,0.6c-0.5,3-1.9,5.3-4,6.8C-2270.3,521-2272.3,521.5-2274.4,521.3z"/>
			</g>
			<g>
				<path class="st0" d="M-2229.1,510.7c-0.3,0-0.5-0.3-0.5-0.5c0.1-2,1.6-3,3-2.9c1.5,0.1,2.9,1.2,2.8,3.1c0,0.3-0.3,0.5-0.5,0.5
					c-0.3,0-0.5-0.3-0.5-0.5c0-0.6-0.1-1.2-0.5-1.5c-0.3-0.3-0.8-0.5-1.3-0.5c-0.9,0-1.9,0.5-2,1.9
					C-2228.5,510.5-2228.8,510.7-2229.1,510.7C-2229.1,510.7-2229.1,510.7-2229.1,510.7z"/>
			</g>
			<g>
				<path class="st0" d="M-2245.2,511.2c-0.3,0-0.5-0.3-0.5-0.5c0.1-1.2,0.6-1.8,1-2.2c0.6-0.5,1.3-0.7,2-0.7c0.8,0,1.4,0.3,2,0.9
					c0.4,0.4,0.9,1.1,0.8,2.3c0,0.3-0.3,0.5-0.5,0.5c-0.3,0-0.5-0.3-0.5-0.5c0.1-1.4-0.9-2-1.8-2.1c-0.5,0-1,0.1-1.3,0.4
					c-0.4,0.3-0.6,0.9-0.7,1.5C-2244.7,511-2244.9,511.3-2245.2,511.2C-2245.2,511.2-2245.2,511.2-2245.2,511.2z"/>
			</g>
			<g>
				<path class="st0" d="M-2235.5,525c-3.9-0.4-7.9-3.3-8.1-9.5c0-0.3,0.2-0.5,0.5-0.5c0.3,0,0.5,0.2,0.5,0.5
					c0.2,6.1,4.4,8.7,8.3,8.5c3.8-0.1,7.9-3,7.6-9.1c0-0.3,0.2-0.5,0.5-0.5s0.5,0.2,0.5,0.5c0.3,6.8-4.3,10-8.6,10.2
					C-2234.7,525-2235.1,525-2235.5,525z"/>
			</g>
		</g>
	</g>
	<g>
		<g>
			<path class="st0" d="M-2195.1,533c-2.7,0-5.2-0.4-7.5-1.2s-4.1-1.9-5.3-3.2c-0.6-0.6-0.8-1.3-0.7-2.1c0.1-0.8,0.5-1.4,1.1-1.9
				c0.8-0.6,1.5-0.9,2.3-0.8s1.4,0.4,1.9,1c0.7,0.7,1.7,1.4,3.2,2c1.4,0.6,3.1,1,4.8,1c2.2,0,3.9-0.4,5.1-1.1
				c1.2-0.7,1.8-1.7,1.8-2.8c0-1.2-0.5-2.2-1.6-3c-1.1-0.8-3.2-1.5-6.2-2.1c-3.9-0.8-6.7-1.9-8.5-3.5c-1.8-1.5-2.6-3.4-2.6-5.7
				c0-2,0.6-3.6,1.7-4.9c1.2-1.3,2.6-2.3,4.4-2.9c1.8-0.6,3.7-1,5.7-1c2.5,0,4.8,0.4,6.8,1.2s3.5,1.9,4.7,3.4
				c0.5,0.6,0.8,1.3,0.8,1.9c0,0.7-0.4,1.2-1,1.7c-0.6,0.4-1.3,0.6-2.2,0.4c-0.8-0.1-1.6-0.5-2.1-1c-1-0.9-2-1.6-3.1-1.9
				c-1.1-0.4-2.4-0.5-3.9-0.5c-1.7,0-3.1,0.3-4.3,0.9c-1.2,0.6-1.8,1.4-1.8,2.5c0,0.7,0.2,1.3,0.6,1.9c0.4,0.6,1.1,1.1,2.2,1.5
				s2.7,0.9,4.7,1.3c2.9,0.6,5.2,1.3,6.9,2.2s2.9,1.9,3.6,3.1c0.7,1.2,1.1,2.5,1.1,4.1c0,1.8-0.5,3.4-1.4,4.8
				c-0.9,1.4-2.3,2.6-4.2,3.4C-2190.1,532.5-2192.4,533-2195.1,533z"/>
			<path class="st0" d="M-2164.8,533c-2.7,0-5-0.6-7.1-1.7c-2.1-1.1-3.8-2.8-5-5s-1.8-4.9-1.8-8.1V504c0-0.9,0.3-1.5,0.8-2.1
				s1.3-0.8,2.1-0.8c0.9,0,1.6,0.3,2.1,0.8c0.6,0.6,0.8,1.3,0.8,2.1v14.2c0,2.2,0.4,3.9,1.2,5.3c0.8,1.4,1.9,2.5,3.3,3.1
				c1.4,0.7,2.9,1,4.7,1c1.7,0,3.1-0.3,4.4-1c1.3-0.7,2.3-1.5,3.1-2.7s1.2-2.4,1.2-3.8h3.6c0,2.4-0.6,4.5-1.8,6.5
				c-1.2,1.9-2.8,3.5-4.8,4.6C-2159.9,532.5-2162.2,533-2164.8,533z M-2152.1,532.7c-0.8,0-1.6-0.3-2.1-0.8
				c-0.6-0.6-0.8-1.3-0.8-2.1V504c0-0.9,0.3-1.6,0.8-2.1s1.3-0.8,2.1-0.8c0.9,0,1.6,0.3,2.1,0.8s0.8,1.3,0.8,2.1v25.8
				c0,0.8-0.3,1.5-0.8,2.1S-2151.2,532.7-2152.1,532.7z"/>
			<path class="st0" d="M-2138.6,546.3c-0.9,0-1.6-0.3-2.1-0.8s-0.8-1.3-0.8-2.1V517c0-3,0.8-5.8,2.1-8.2c1.4-2.4,3.3-4.3,5.7-5.8
				c2.4-1.4,5.1-2.1,8.1-2.1c3,0,5.8,0.7,8.2,2.1c2.4,1.4,4.3,3.3,5.7,5.8s2.1,5.2,2.1,8.2c0,3.1-0.6,5.8-1.9,8.2
				c-1.3,2.4-3.1,4.3-5.3,5.7c-2.2,1.4-4.8,2.1-7.6,2.1c-2.3,0-4.4-0.5-6.3-1.4c-1.9-0.9-3.5-2.2-4.9-3.8v15.6
				c0,0.8-0.3,1.5-0.8,2.1C-2137.1,546-2137.8,546.3-2138.6,546.3z M-2125.7,527.8c2,0,3.7-0.5,5.3-1.4c1.5-0.9,2.8-2.2,3.7-3.9
				c0.9-1.6,1.4-3.5,1.4-5.5c0-2.1-0.4-3.9-1.4-5.6c-0.9-1.6-2.1-2.9-3.7-3.9s-3.3-1.4-5.3-1.4c-1.9,0-3.7,0.5-5.2,1.4
				c-1.6,0.9-2.8,2.2-3.7,3.9c-0.9,1.6-1.3,3.5-1.3,5.6c0,2,0.4,3.9,1.3,5.5c0.9,1.6,2.1,2.9,3.7,3.9
				C-2129.4,527.3-2127.6,527.8-2125.7,527.8z"/>
			<path class="st0" d="M-2089,533c-3.2,0-6-0.7-8.5-2s-4.4-3.3-5.8-5.7c-1.4-2.4-2.1-5.2-2.1-8.3c0-3.2,0.7-5.9,2-8.3
				c1.3-2.4,3.2-4.3,5.5-5.7c2.4-1.4,5.1-2,8.1-2c3,0,5.6,0.7,7.7,2c2.2,1.3,3.8,3.2,4.9,5.5s1.7,5,1.7,8.1c0,0.7-0.3,1.3-0.8,1.8
				c-0.5,0.5-1.1,0.7-1.9,0.7h-23.3v-4.6h23.1l-2.4,1.6c0-1.9-0.4-3.7-1.2-5.2c-0.7-1.5-1.8-2.7-3.1-3.6c-1.3-0.9-3-1.3-4.9-1.3
				c-2.2,0-4.1,0.5-5.6,1.4s-2.8,2.3-3.6,4c-0.8,1.7-1.2,3.6-1.2,5.7s0.5,4,1.4,5.7s2.3,3,4,3.9c1.7,1,3.6,1.4,5.8,1.4
				c1.2,0,2.4-0.2,3.7-0.7s2.3-1,3-1.5c0.6-0.4,1.2-0.6,1.9-0.7c0.7,0,1.3,0.2,1.8,0.6c0.6,0.6,1,1.2,1,1.9c0,0.7-0.3,1.3-0.9,1.8
				c-1.3,1-2.9,1.9-4.9,2.5C-2085.4,532.6-2087.2,533-2089,533z"/>
			<path class="st0" d="M-2068,532.7c-0.9,0-1.6-0.2-2.1-0.7s-0.8-1.2-0.8-2.2V504c0-0.9,0.3-1.6,0.8-2.1s1.2-0.8,2.1-0.8
				c1,0,1.7,0.2,2.2,0.7c0.5,0.5,0.7,1.2,0.7,2.2v25.8c0,0.9-0.2,1.6-0.7,2.1C-2066.3,532.5-2067,532.7-2068,532.7z M-2068,513
				c0-2.3,0.6-4.4,1.7-6.2c1.1-1.8,2.7-3.3,4.6-4.4c1.9-1.1,4-1.6,6.4-1.6c2.3,0,4,0.4,5.2,1.1c1.1,0.8,1.6,1.6,1.3,2.7
				c-0.1,0.5-0.3,1-0.7,1.2c-0.3,0.3-0.7,0.5-1.1,0.5c-0.4,0.1-0.9,0.1-1.4-0.1c-2.5-0.5-4.7-0.5-6.6-0.1s-3.5,1.2-4.7,2.4
				c-1.1,1.2-1.7,2.6-1.7,4.4H-2068L-2068,513z"/>
		</g>
	</g>
	<g>
		<g>
			<path class="st1" d="M-2040.8,532.7c-0.8,0-1.5-0.3-2.1-0.8s-0.8-1.2-0.8-2v-39.5c0-0.9,0.3-1.5,0.8-2s1.2-0.8,2.1-0.8
				c0.8,0,1.5,0.3,2.1,0.8s0.8,1.2,0.8,2v39.5c0,0.8-0.3,1.5-0.8,2C-2039.3,532.5-2040,532.7-2040.8,532.7z M-2038.1,521.2l-3.6-3.9
				l17.7-15.8c0.6-0.5,1.2-0.8,1.9-0.8c0.7,0,1.3,0.4,1.8,0.9c0.5,0.6,0.8,1.2,0.8,1.9c0,0.7-0.3,1.3-0.9,1.9L-2038.1,521.2z
				 M-2020.2,532.5c-0.6,0.5-1.3,0.7-2.1,0.7c-0.8-0.1-1.4-0.4-1.9-1l-11.7-14.5l4-3.8l12,14.8c0.5,0.6,0.7,1.3,0.7,2
				C-2019.2,531.3-2019.5,531.9-2020.2,532.5z"/>
			<path class="st2" d="M-2010.1,496c-1,0-1.9-0.4-2.7-1.1s-1.1-1.6-1.1-2.7s0.4-1.9,1.1-2.7s1.7-1.1,2.7-1.1s1.9,0.4,2.7,1.1
				s1.1,1.6,1.1,2.7s-0.4,1.9-1.1,2.7C-2008.2,495.6-2009.1,496-2010.1,496z M-2010.1,532.7c-0.8,0-1.6-0.3-2.1-0.8
				c-0.6-0.6-0.8-1.3-0.8-2.1v-25.7c0-0.9,0.3-1.6,0.8-2.1c0.6-0.5,1.3-0.8,2.1-0.8c0.9,0,1.6,0.3,2.1,0.8s0.8,1.3,0.8,2.1v25.7
				c0,0.8-0.3,1.5-0.8,2.1C-2008.5,532.5-2009.2,532.7-2010.1,532.7z"/>
			<path class="st3" d="M-1984.8,533c-3,0-5.7-0.7-8.1-2.1s-4.3-3.3-5.7-5.8c-1.4-2.4-2.1-5.2-2.1-8.2c0-3,0.6-5.8,1.9-8.2
				c1.3-2.4,3.1-4.3,5.3-5.7c2.2-1.4,4.8-2.1,7.6-2.1c2.3,0,4.4,0.5,6.3,1.4c1.9,0.9,3.5,2.2,4.8,3.8v-15.6c0-0.9,0.3-1.6,0.8-2.1
				c0.6-0.5,1.3-0.8,2.1-0.8c0.9,0,1.6,0.3,2.1,0.8s0.8,1.3,0.8,2.1v26.4c0,3-0.7,5.8-2.1,8.2s-3.3,4.3-5.7,5.8
				C-1979.1,532.3-1981.8,533-1984.8,533z M-1984.8,527.8c2,0,3.7-0.5,5.3-1.4c1.5-0.9,2.8-2.2,3.6-3.9c0.9-1.7,1.3-3.5,1.3-5.5
				c0-2.1-0.4-3.9-1.3-5.5s-2.1-2.9-3.6-3.8s-3.3-1.4-5.3-1.4c-1.9,0-3.7,0.5-5.2,1.4c-1.6,0.9-2.8,2.2-3.7,3.8
				c-0.9,1.6-1.4,3.5-1.4,5.5c0,2,0.4,3.9,1.4,5.5c0.9,1.7,2.1,3,3.7,3.9C-1988.4,527.3-1986.7,527.8-1984.8,527.8z"/>
			<path class="st4" d="M-1949.9,533c-2.7,0-5.2-0.4-7.5-1.2s-4.1-1.9-5.3-3.2c-0.6-0.6-0.8-1.3-0.7-2.1s0.5-1.4,1.1-1.9
				c0.8-0.6,1.5-0.9,2.3-0.8s1.4,0.4,1.9,1c0.7,0.7,1.7,1.4,3.2,2c1.4,0.6,3.1,1,4.8,1c2.2,0,3.9-0.4,5.1-1.1s1.8-1.7,1.8-2.8
				c0-1.2-0.5-2.2-1.7-3c-1.1-0.8-3.2-1.5-6.2-2.1c-3.9-0.8-6.7-1.9-8.5-3.5c-1.8-1.5-2.6-3.4-2.6-5.7c0-2,0.6-3.6,1.7-4.9
				c1.2-1.3,2.6-2.3,4.4-2.9c1.8-0.6,3.7-1,5.7-1c2.5,0,4.8,0.4,6.8,1.2s3.5,1.9,4.7,3.4c0.5,0.6,0.8,1.3,0.8,1.9
				c0,0.7-0.4,1.2-1,1.7c-0.6,0.4-1.3,0.6-2.2,0.4c-0.8-0.1-1.6-0.5-2.1-1c-1-0.9-2-1.6-3.1-1.9s-2.4-0.5-3.9-0.5
				c-1.7,0-3.1,0.3-4.3,0.9c-1.2,0.6-1.8,1.4-1.8,2.5c0,0.7,0.2,1.3,0.6,1.9s1.1,1.1,2.2,1.5c1.1,0.4,2.7,0.9,4.7,1.3
				c2.9,0.6,5.2,1.3,6.8,2.2c1.7,0.9,2.9,1.9,3.6,3.1c0.7,1.2,1.1,2.5,1.1,4.1c0,1.8-0.5,3.4-1.4,4.8c-0.9,1.4-2.3,2.6-4.2,3.4
				C-1944.8,532.5-1947.1,533-1949.9,533z"/>
		</g>
	</g>
</g>
<g>
	<g>
		<g>
			<g>
				<path class="st0" d="M-2521.5,575.5c-0.6-0.1-1.2-0.1-1.8-0.2c-13.6-2.2-23.6-14.1-23.3-27.9c0.2-7.8,3.4-15,9.3-20.2
					c5.7-5.1,13.4-7.6,21.1-6.9c7.5,0.7,14.4,4.1,19.2,9.1c5.7-4,13-6,20.3-5.3c15.6,1.5,27.2,15.1,25.7,30.3
					c-1.5,15.2-15.4,26.4-31,24.9c-6.3-0.6-12.2-3.2-16.9-7.5c-0.7-0.7-1.4-1.3-2-2C-2506.6,573.9-2514,576.2-2521.5,575.5z
					 M-2516.3,521.5c-7.3-0.7-14.7,1.7-20.1,6.6c-5.6,5-8.7,11.8-8.9,19.3c-0.3,13.1,9.3,24.6,22.3,26.6c7.7,1.2,15.4-0.9,21.3-5.3
					c-3-3.7-5.1-8-5.9-12.6c-0.4-2.1,0.4-4.2,2-5.4c1-0.7,2.1-1,3.2-0.9c0.1,0,2.2,0.2,3.4,1.5c0.6-0.5,1.8-1,3.6-0.9
					c2.4,0.2,3.4,1.8,3.8,3c0.4,1.2,0.4,2.5-0.1,3.8c-1.7,4.6-4.6,8.6-8.3,11.6c4.5,5,10.9,8.4,18.1,9.1c15,1.4,28.3-9.3,29.7-23.8
					c1.4-14.5-9.7-27.5-24.6-29c-7-0.7-13.8,1.3-19.3,5c2.7,3.1,4.7,6.7,5.7,10.6c0.5,2,0.3,4-0.6,5.7c-0.6,1.1-1.4,1.9-2.3,2.3
					c-2.3,1.1-4.7-0.5-5.6-1.2c-1.4,1.1-3.6,1-3.7,0.9c-1.6-0.2-2.9-1-3.7-2.3c-0.9-1.5-1-3.3-0.3-5c1.8-4.4,4.9-8.3,8.8-11.2
					C-2502.7,525.3-2509.2,522.2-2516.3,521.5z M-2502.5,551c-0.9-0.1-1.7,0.1-2.4,0.7c-1.2,0.9-1.8,2.5-1.5,4.2
					c0.8,4.5,2.8,8.7,5.7,12.1c3.6-2.9,6.4-6.7,7.9-11.1c0.4-1,0.4-2.1,0.1-3c-0.4-1.3-1.4-2-2.8-2.2c-1.6-0.2-2.5,0.4-2.9,0.8
					c-0.2,0.2-0.5,0.2-0.7,0.2c-0.3,0-0.5-0.2-0.6-0.4C-2500.6,551.2-2502.5,551-2502.5,551z M-2497.2,530.9
					c-3.7,2.8-6.7,6.5-8.5,10.8c-0.5,1.3-0.4,2.7,0.2,3.9c0.6,1,1.5,1.6,2.8,1.7c0,0,2,0.2,2.9-0.8c0.3-0.3,0.9-0.3,1.3,0
					c0.6,0.5,2.6,2.1,4.5,1.2c0.7-0.3,1.3-0.9,1.8-1.8c0.8-1.4,0.9-3.1,0.5-4.8C-2492.6,537.3-2494.5,533.9-2497.2,530.9z"/>
			</g>
			<g>
				<path class="st0" d="M-2528.5,522.7l-0.2-0.6c-3.1-10.9,4.6-14.9,7-15.9l0,0c0.3-0.1,0.7-0.1,1.1,0c0.3,0.1,0.6,0.4,0.7,0.8
					l3.6,10.1c0.1,0.3,0.1,0.7-0.1,1.1c-0.2,0.3-0.4,0.6-0.8,0.7L-2528.5,522.7z M-2521.3,507.4c-2.7,1.1-8.7,4.6-6.4,13.8l10.1-3.4
					c0.1,0,0.1,0,0.1-0.1c0,0,0-0.1,0-0.1l-3.6-10.1c0,0-0.1-0.1-0.1-0.1C-2521.2,507.4-2521.3,507.4-2521.3,507.4L-2521.3,507.4z"
					/>
			</g>
			<g>
				<path class="st0" d="M-2539.3,526.7c-0.1,0-0.3,0-0.4-0.1c-0.3-0.2-0.6-0.4-0.7-0.8l-3.7-10.1c-0.1-0.3-0.1-0.7,0.1-1.1
					c0.2-0.3,0.4-0.6,0.8-0.7l0,0c2.5-0.8,10.8-2.6,15.5,7.7l0.3,0.6l-11.2,4.4C-2538.9,526.7-2539.1,526.7-2539.3,526.7z
					 M-2542.9,515.1C-2542.9,515.2-2543,515.2-2542.9,515.1c-0.1,0.1-0.1,0.1-0.1,0.2l3.7,10.1c0,0,0.1,0.1,0.1,0.1c0,0,0.1,0,0.1,0
					l10-3.9C-2533.3,513.1-2540.1,514.2-2542.9,515.1L-2542.9,515.1z"/>
			</g>
			<g>
				<path class="st0" d="M-2461.3,585.8c-3.3-0.3-7.3-2.1-10-8.2l-0.3-0.6l10.9-4.1c0.3-0.1,0.7-0.1,1.1,0c0.3,0.2,0.6,0.4,0.7,0.8
					l3.4,9.8c0.1,0.3,0.1,0.7-0.1,1.1c-0.2,0.3-0.5,0.6-0.8,0.7l0,0C-2457.3,585.6-2459.1,586.1-2461.3,585.8z M-2469.9,577.7
					c3.9,8.3,10.5,7.3,13.2,6.4l0,0c0.1,0,0.1,0,0.1-0.1c0,0,0-0.1,0-0.1l-3.4-9.8c0,0-0.1-0.1-0.1-0.1c0,0-0.1,0-0.1,0
					L-2469.9,577.7z"/>
			</g>
			<g>
				<path class="st0" d="M-2477.8,592.7c-0.1,0-0.3-0.1-0.4-0.1c-0.3-0.2-0.6-0.4-0.7-0.8l-3.4-9.8c-0.1-0.3-0.1-0.7,0.1-1.1
					c0.2-0.3,0.4-0.6,0.8-0.7l11.1-3.5l0.2,0.6c2.8,10.6-4.6,14.4-7,15.3l0,0C-2477.4,592.7-2477.6,592.8-2477.8,592.7z
					 M-2471.3,578.3l-9.8,3.1c-0.1,0-0.1,0-0.1,0.1s0,0.1,0,0.1l3.4,9.8c0,0,0.1,0.1,0.1,0.1c0,0,0.1,0,0.1,0
					C-2475,590.5-2469.2,587.2-2471.3,578.3z"/>
			</g>
			<g>
				<path class="st0" d="M-2528.7,538.5c-0.3,0-0.6-0.3-0.6-0.7c0.1-0.8-0.1-1.4-0.5-1.9c-0.4-0.4-0.9-0.7-1.5-0.8
					c-1.1-0.1-2.4,0.5-2.5,2.2c0,0.3-0.3,0.6-0.7,0.5c-0.3,0-0.6-0.3-0.6-0.7c0.2-2.4,2.1-3.5,3.9-3.3s3.4,1.6,3.2,4
					C-2528.1,538.2-2528.4,538.5-2528.7,538.5z"/>
			</g>
			<g>
				<path class="st0" d="M-2509.4,541.8c-0.3,0-0.6-0.3-0.6-0.7c0.1-0.8-0.1-1.4-0.5-1.9c-0.4-0.4-0.9-0.7-1.5-0.8
					c-1.1-0.1-2.4,0.5-2.5,2.2c0,0.3-0.3,0.6-0.7,0.5s-0.6-0.3-0.6-0.7c0.2-2.4,2.1-3.5,3.9-3.3s3.4,1.6,3.2,4
					C-2508.7,541.6-2509,541.8-2509.4,541.8z"/>
			</g>
			<g>
				<path class="st0" d="M-2524.1,556.7c-0.3,0-0.6-0.1-0.9-0.1c-2.8-0.5-5.3-2-6.9-4.3c-1.8-2.5-2.4-5.8-1.8-9.4
					c0.1-0.3,0.4-0.6,0.7-0.5c0.3,0.1,0.6,0.4,0.5,0.7c-0.6,3.3,0,6.2,1.6,8.5c1.4,2,3.6,3.3,6.1,3.8c4.6,0.8,10.1-1.6,11.4-8.9
					c0.1-0.3,0.4-0.6,0.7-0.5c0.3,0.1,0.6,0.4,0.5,0.7c-0.6,3.6-2.3,6.5-4.9,8.2C-2519.1,556.3-2521.6,556.9-2524.1,556.7z"/>
			</g>
			<g>
				<path class="st0" d="M-2469,543.8c-0.3,0-0.6-0.3-0.6-0.6c0.1-2.4,1.9-3.6,3.7-3.5c1.8,0.1,3.5,1.4,3.4,3.8
					c0,0.3-0.3,0.6-0.6,0.6c-0.3,0-0.6-0.3-0.6-0.6c0-0.8-0.2-1.4-0.6-1.9c-0.4-0.4-1-0.6-1.6-0.7c-1.2,0-2.3,0.7-2.4,2.3
					C-2468.4,543.5-2468.7,543.8-2469,543.8C-2469,543.8-2469,543.8-2469,543.8z"/>
			</g>
			<g>
				<path class="st0" d="M-2488.6,544.4c-0.3,0-0.6-0.3-0.6-0.6c0.1-1.4,0.7-2.2,1.2-2.7c0.7-0.6,1.5-0.9,2.5-0.8
					c0.9,0,1.8,0.4,2.4,1c0.5,0.5,1.1,1.4,1,2.8c0,0.3-0.3,0.6-0.6,0.6c-0.3,0-0.6-0.3-0.6-0.6c0.1-1.7-1.1-2.5-2.2-2.5
					c-0.6,0-1.2,0.2-1.6,0.5c-0.5,0.4-0.8,1-0.8,1.8C-2488,544.2-2488.3,544.4-2488.6,544.4
					C-2488.6,544.4-2488.6,544.4-2488.6,544.4z"/>
			</g>
			<g>
				<path class="st0" d="M-2476.8,561.2c-4.8-0.5-9.6-4-9.9-11.5c0-0.3,0.3-0.6,0.6-0.6c0.3,0,0.6,0.3,0.6,0.6
					c0.3,7.4,5.4,10.5,10.1,10.4c4.7-0.2,9.5-3.7,9.3-11.1c0-0.3,0.3-0.6,0.6-0.6c0.3,0,0.6,0.3,0.6,0.6c0.3,8.2-5.2,12.2-10.4,12.3
					C-2475.8,561.2-2476.3,561.2-2476.8,561.2z"/>
			</g>
		</g>
	</g>
	<g>
		<g>
			<path class="st0" d="M-2491.4,518.5c-3.3,0-6.3-0.5-9.1-1.5c-2.8-1-4.9-2.3-6.5-3.8c-0.7-0.8-1-1.6-0.9-2.6
				c0.1-1,0.6-1.7,1.4-2.4c0.9-0.8,1.9-1.1,2.8-1c0.9,0.1,1.7,0.5,2.3,1.2c0.8,0.9,2.1,1.7,3.8,2.5s3.7,1.2,5.9,1.2
				c2.7,0,4.8-0.4,6.2-1.3c1.4-0.9,2.2-2,2.2-3.4c0.1-1.4-0.6-2.6-2-3.6c-1.4-1-3.9-1.9-7.6-2.5c-4.7-0.9-8.2-2.3-10.3-4.2
				c-2.1-1.9-3.2-4.2-3.2-6.9c0-2.4,0.7-4.4,2.1-5.9c1.4-1.6,3.2-2.7,5.4-3.5c2.2-0.8,4.5-1.2,6.9-1.2c3.1,0,5.8,0.5,8.2,1.5
				c2.4,1,4.3,2.3,5.7,4.1c0.7,0.8,1,1.5,0.9,2.4s-0.4,1.5-1.2,2.1c-0.8,0.5-1.6,0.7-2.7,0.5s-1.9-0.6-2.6-1.3
				c-1.2-1.1-2.4-1.9-3.8-2.3c-1.4-0.4-2.9-0.6-4.7-0.6c-2.1,0-3.8,0.4-5.2,1c-1.4,0.7-2.1,1.7-2.1,3.1c0,0.8,0.2,1.6,0.7,2.3
				s1.3,1.3,2.6,1.8c1.3,0.5,3.2,1.1,5.8,1.6c3.5,0.7,6.3,1.6,8.3,2.7c2,1.1,3.5,2.3,4.4,3.8c0.9,1.4,1.3,3.1,1.3,5
				c0,2.1-0.6,4.1-1.7,5.8c-1.1,1.7-2.8,3.1-5.1,4.1C-2485.3,518-2488.1,518.5-2491.4,518.5z"/>
			<path class="st0" d="M-2456.3,518.6c-3.2,0-6.1-0.7-8.7-2.1s-4.6-3.4-6-6.1c-1.5-2.7-2.2-6-2.2-9.8v-17.3c0-1,0.3-1.9,1-2.6
				c0.7-0.7,1.5-1,2.6-1s1.9,0.3,2.6,1c0.7,0.7,1,1.5,1,2.6v17.3c0,2.6,0.5,4.8,1.5,6.5s2.3,3,4,3.8c1.7,0.8,3.6,1.2,5.7,1.2
				c2,0,3.8-0.4,5.4-1.2c1.6-0.8,2.8-1.9,3.8-3.2c0.9-1.4,1.4-2.9,1.4-4.6h4.4c0,2.9-0.7,5.5-2.1,7.9c-1.4,2.3-3.4,4.2-5.8,5.5
				C-2450.4,517.9-2453.2,518.6-2456.3,518.6z M-2440.8,518.2c-1,0-1.9-0.3-2.6-1c-0.7-0.7-1-1.5-1-2.6v-31.3c0-1.1,0.3-1.9,1-2.6
				c0.7-0.6,1.5-1,2.6-1c1.1,0,1.9,0.3,2.6,1c0.7,0.7,1,1.5,1,2.6v31.3c0,1-0.3,1.9-1,2.6C-2438.9,517.9-2439.7,518.2-2440.8,518.2z
				"/>
			<path class="st0" d="M-2426.3,534.7c-1,0-1.9-0.3-2.6-1c-0.7-0.7-1-1.5-1-2.6v-32c0.1-3.7,0.9-7,2.6-10s4-5.3,6.9-7
				c2.9-1.7,6.2-2.6,9.8-2.6c3.7,0,7,0.9,9.9,2.6c2.9,1.7,5.2,4,6.9,7c1.7,3,2.6,6.3,2.6,10s-0.8,7-2.4,9.9
				c-1.6,2.9-3.7,5.2-6.4,6.9s-5.8,2.6-9.2,2.6c-2.8,0-5.3-0.6-7.6-1.7c-2.3-1.2-4.3-2.7-5.9-4.7v19c0,1-0.3,1.9-1,2.6
				C-2424.3,534.3-2425.2,534.7-2426.3,534.7z M-2410.5,512.2c2.4,0,4.5-0.6,6.4-1.7c1.9-1.1,3.4-2.7,4.5-4.7c1.1-2,1.6-4.2,1.6-6.7
				c0-2.5-0.6-4.8-1.6-6.8c-1.1-2-2.6-3.6-4.5-4.7c-1.9-1.1-4-1.7-6.4-1.7c-2.3,0-4.5,0.6-6.4,1.7c-1.9,1.1-3.4,2.7-4.5,4.7
				c-1.1,2-1.6,4.3-1.6,6.8c0,2.5,0.5,4.7,1.6,6.7c1.1,2,2.6,3.6,4.5,4.7S-2412.9,512.2-2410.5,512.2z"/>
			<path class="st0" d="M-2367.7,518.5c-3.9,0-7.3-0.8-10.4-2.5c-3-1.7-5.4-4-7.1-6.9c-1.7-2.9-2.6-6.3-2.6-10.1
				c0-3.8,0.8-7.2,2.4-10.1c1.6-2.9,3.9-5.2,6.7-6.9c2.9-1.7,6.1-2.5,9.8-2.5c3.6,0,6.8,0.8,9.4,2.4c2.6,1.6,4.6,3.8,6,6.7
				c1.4,2.8,2.1,6.1,2.1,9.8c0,0.9-0.3,1.6-0.9,2.2c-0.6,0.6-1.4,0.9-2.3,0.9h-28.3v-5.6h28.1l-2.9,2c-0.1-2.3-0.5-4.4-1.4-6.3
				c-0.9-1.9-2.1-3.3-3.8-4.4c-1.6-1.1-3.6-1.6-6-1.6c-2.7,0-4.9,0.6-6.8,1.8c-1.9,1.2-3.3,2.8-4.3,4.8s-1.5,4.3-1.5,6.9
				c0,2.6,0.6,4.9,1.8,6.9c1.2,2,2.8,3.6,4.9,4.8s4.4,1.8,7.1,1.8c1.4,0,2.9-0.3,4.5-0.8c1.5-0.5,2.8-1.2,3.7-1.9
				c0.7-0.5,1.5-0.8,2.3-0.8c0.8,0,1.5,0.2,2.1,0.7c0.8,0.7,1.2,1.5,1.3,2.3c0.1,0.8-0.3,1.6-1.1,2.2c-1.6,1.3-3.6,2.3-5.9,3.1
				C-2363.3,518.1-2365.5,518.5-2367.7,518.5z"/>
			<path class="st0" d="M-2343.9,518.2c-1.1,0-2-0.3-2.6-0.9c-0.6-0.6-0.9-1.5-0.9-2.6v-31.4c0-1.1,0.3-2,0.9-2.6
				c0.6-0.6,1.5-0.9,2.6-0.9c1.2,0,2.1,0.3,2.6,0.9c0.6,0.6,0.9,1.5,0.9,2.6v31.4c0,1.1-0.3,2-0.9,2.6
				C-2341.8,517.9-2342.7,518.2-2343.9,518.2z M-2344,494.2c0-2.8,0.7-5.3,2.1-7.5c1.4-2.2,3.2-4,5.6-5.3c2.3-1.3,4.9-2,7.7-2
				c2.8,0,4.9,0.5,6.3,1.4c1.4,0.9,1.9,2,1.6,3.3c-0.1,0.7-0.4,1.2-0.8,1.5c-0.4,0.4-0.9,0.6-1.4,0.7c-0.5,0.1-1.1,0.1-1.7-0.1
				c-3-0.6-5.7-0.7-8.1-0.1c-2.4,0.5-4.3,1.5-5.6,2.9c-1.4,1.4-2.1,3.2-2.1,5.3L-2344,494.2L-2344,494.2z"/>
		</g>
	</g>
	<g>
		<g>
			<path class="st1" d="M-2441,580.9c-1,0-1.9-0.3-2.5-1c-0.6-0.6-0.9-1.5-0.9-2.5v-48c0-1,0.3-1.9,0.9-2.5c0.6-0.6,1.5-1,2.5-1
				s1.9,0.3,2.5,1c0.6,0.6,0.9,1.5,0.9,2.5v48c0,1-0.3,1.9-0.9,2.5C-2439.1,580.6-2440,580.9-2441,580.9z M-2437.7,566.9l-4.4-4.8
				l21.6-19.2c0.7-0.7,1.5-1,2.4-0.9c0.9,0,1.6,0.4,2.2,1.1c0.7,0.7,1,1.5,0.9,2.3s-0.4,1.6-1.1,2.3L-2437.7,566.9z M-2415.9,580.6
				c-0.8,0.6-1.6,0.9-2.5,0.8c-0.9-0.1-1.7-0.5-2.3-1.2l-14.3-17.6l4.9-4.6l14.6,18c0.6,0.8,0.9,1.6,0.8,2.4
				C-2414.7,579.1-2415.1,579.9-2415.9,580.6z"/>
			<path class="st2" d="M-2405.5,536.2c-1.3,0-2.4-0.5-3.3-1.4c-0.9-0.9-1.4-2-1.4-3.3s0.5-2.3,1.4-3.3c0.9-0.9,2-1.4,3.3-1.4
				s2.3,0.5,3.3,1.4c0.9,0.9,1.4,2,1.4,3.3s-0.5,2.3-1.4,3.3C-2403.1,535.8-2404.2,536.2-2405.5,536.2z M-2405.5,580.9
				c-1,0-1.9-0.3-2.6-1c-0.7-0.7-1-1.5-1-2.6v-31.3c0-1.1,0.3-1.9,1-2.6c0.7-0.7,1.5-1,2.6-1c1.1,0,1.9,0.3,2.6,1
				c0.7,0.7,1,1.5,1,2.6v31.3c0,1-0.3,1.9-1,2.6C-2403.5,580.6-2404.4,580.9-2405.5,580.9z"/>
			<path class="st3" d="M-2376.4,581.2c-3.6,0-6.9-0.8-9.9-2.6c-2.9-1.7-5.2-4-6.9-7s-2.6-6.3-2.6-10c0-3.7,0.8-7,2.3-9.9
				c1.6-2.9,3.7-5.2,6.4-7c2.7-1.7,5.8-2.6,9.2-2.6c2.8,0,5.3,0.6,7.7,1.7c2.3,1.2,4.3,2.7,5.9,4.7v-19c0-1.1,0.3-1.9,1-2.6
				c0.7-0.7,1.5-1,2.6-1c1.1,0,1.9,0.3,2.6,1c0.7,0.7,1,1.5,1,2.6v32c0,3.7-0.9,7-2.6,10c-1.7,2.9-4,5.3-6.9,7
				C-2369.5,580.3-2372.7,581.2-2376.4,581.2z M-2376.4,574.9c2.4,0,4.5-0.6,6.4-1.7c1.9-1.2,3.3-2.7,4.4-4.7c1.1-2,1.6-4.3,1.6-6.7
				c0-2.5-0.5-4.8-1.6-6.7c-1.1-2-2.6-3.5-4.4-4.7c-1.9-1.2-4-1.7-6.4-1.7c-2.3,0-4.5,0.6-6.4,1.7c-1.9,1.2-3.4,2.7-4.5,4.7
				c-1.1,2-1.7,4.2-1.7,6.7c0,2.5,0.6,4.7,1.7,6.7c1.1,2,2.6,3.6,4.5,4.7C-2380.8,574.3-2378.7,574.9-2376.4,574.9z"/>
			<path class="st4" d="M-2335.7,581.2c-3.3,0-6.3-0.5-9.1-1.5s-4.9-2.3-6.5-3.8c-0.7-0.8-1-1.6-0.9-2.6c0.1-1,0.6-1.7,1.4-2.3
				c0.9-0.8,1.9-1.1,2.8-1c0.9,0.1,1.7,0.5,2.4,1.2c0.8,0.9,2.1,1.7,3.8,2.5s3.7,1.2,5.9,1.2c2.7,0,4.8-0.4,6.2-1.3s2.2-2,2.2-3.4
				c0.1-1.4-0.6-2.6-2-3.7c-1.4-1-3.9-1.9-7.6-2.5c-4.7-0.9-8.2-2.3-10.3-4.2c-2.1-1.9-3.2-4.2-3.2-6.9c0-2.4,0.7-4.4,2.1-5.9
				c1.4-1.6,3.2-2.7,5.4-3.5c2.2-0.8,4.5-1.2,6.9-1.2c3.1,0,5.8,0.5,8.2,1.5c2.4,1,4.3,2.3,5.7,4.1c0.7,0.8,1,1.5,0.9,2.3
				c-0.1,0.8-0.4,1.5-1.2,2.1c-0.8,0.5-1.6,0.7-2.7,0.5s-1.9-0.6-2.6-1.3c-1.2-1.1-2.4-1.9-3.8-2.3c-1.4-0.4-2.9-0.6-4.7-0.6
				c-2.1,0-3.8,0.3-5.2,1c-1.4,0.7-2.1,1.7-2.1,3.1c0,0.8,0.2,1.6,0.7,2.3c0.4,0.7,1.3,1.3,2.6,1.8c1.3,0.5,3.2,1.1,5.8,1.6
				c3.5,0.7,6.3,1.6,8.3,2.7c2,1.1,3.5,2.3,4.4,3.8c0.9,1.4,1.3,3.1,1.3,5c0,2.2-0.6,4.1-1.7,5.8c-1.2,1.7-2.8,3.1-5.1,4.1
				C-2329.6,580.7-2332.4,581.2-2335.7,581.2z"/>
		</g>
	</g>
</g>
<circle class="st0" cx="-1870.1" cy="514.9" r="31.5"/>
<circle class="st1" cx="-1800.6" cy="514.9" r="31.5"/>
<circle class="st2" cx="-1731.1" cy="514.9" r="31.5"/>
<circle class="st3" cx="-1661.6" cy="514.9" r="31.5"/>
<circle class="st4" cx="-1592.1" cy="514.9" r="31.5"/>
<g>
	<g>
		<g>
			<path class="st5" d="M304.9,613c-3.8-0.4-7.6-0.8-11.3-1.4c-86.4-13.7-150.3-89.9-148.5-177.3c1-49.9,21.9-95.5,59-128.6
				c36.5-32.6,85.4-48.6,134.1-44c47.8,4.5,91.4,26,122.2,57.6c36.4-25.1,82.5-38.2,129-33.7c99.5,9.5,172.9,95.9,163.7,192.8
				c-9.2,96.8-97.6,167.9-197.1,158.5c-40.3-3.8-77.5-20.3-107.5-47.8c-4.5-4.1-8.8-8.5-12.9-13C399.2,603.4,352.4,617.5,304.9,613z
				 M337.4,269.5c-46.5-4.4-93.3,10.9-128.2,42c-35.4,31.6-55.4,75.2-56.4,122.9c-1.7,83.5,59.4,156.4,141.9,169.4
				c49.1,7.8,98.2-5.7,135.7-33.7c-19.3-23.4-32.4-51.2-37.7-80.4c-2.4-13.4,2.6-26.8,12.8-34.3c6.1-4.5,13.1-6.4,20.6-5.7
				c0.6,0.1,14.1,1.4,21.6,9.8c4.1-2.9,11.6-6.6,22.9-5.5c15.2,1.5,21.6,11.2,24.2,19.1c2.5,7.6,2.3,16.2-0.6,24.3
				c-10.5,29.3-29.2,54.5-52.8,73.9c28.9,32,69.7,53.4,115.2,57.7c95.2,9,179.8-58.9,188.6-151.4c8.8-92.5-61.5-175.2-156.7-184.3
				c-44.3-4.2-88.1,8-122.9,31.7c17.4,19.4,30.1,42.3,36.3,67.2c3.2,12.8,1.8,25.6-4.1,36.3c-3.8,6.9-8.7,11.8-14.6,14.6
				c-15,7.2-30.2-3.2-35.9-7.9c-9,7.3-23,6-23.7,6c-10.2-1-18.4-6.1-23.5-14.7c-5.6-9.3-6.3-21.1-2-31.6
				c11.6-28.3,31.2-52.6,55.8-71.1C424.4,294.1,382.9,273.9,337.4,269.5z M425.4,457.6c-5.6-0.5-10.7,0.9-15.3,4.2
				c-7.8,5.7-11.7,16.2-9.8,26.6c5.3,28.9,18,55.2,36,77.1c22.7-18.5,40.5-42.6,50.5-70.7c2.3-6.5,2.5-13.3,0.5-19.2
				c-2.8-8.3-8.7-12.9-17.6-13.8c-9.9-0.9-15.9,2.6-18.5,4.8c-1.3,1-2.9,1.6-4.5,1.4c-1.6-0.2-3.1-1-4.1-2.4
				C437.5,458.9,425.5,457.6,425.4,457.6z M459.3,329.7c-23.8,17.8-42.8,41.1-54,68.4c-3.4,8.2-2.8,17.4,1.5,24.6
				c3.9,6.5,9.8,10.2,17.6,10.9c0.1,0,12.5,1.1,18.8-4.9c2.3-2.1,5.8-2.2,8.1-0.1c3.7,3.2,16.8,13.3,28.6,7.7
				c4.4-2.1,8.2-5.9,11.1-11.4c4.9-8.9,6.1-19.8,3.3-30.6C488.4,370.3,476.1,348.3,459.3,329.7z"/>
		</g>
		<g>
			<path class="st5" d="M259.8,277.5l-1.1-4c-19.4-69.4,29-94.7,44.3-100.9l0,0c2.2-0.9,4.6-0.8,6.8,0.1c2.2,1,3.8,2.8,4.6,5
				l23.2,64.2c0.8,2.2,0.7,4.6-0.4,6.7c-1,2.1-2.8,3.7-5.1,4.5L259.8,277.5z M305.9,179.9c-17.3,6.9-55.1,29.1-40.7,87.6l64.5-21.6
				c0.3-0.1,0.4-0.3,0.5-0.5c0.1-0.2,0.1-0.4,0-0.7L307,180.5c-0.1-0.3-0.3-0.4-0.5-0.5C306.4,179.9,306.1,179.8,305.9,179.9
				L305.9,179.9z"/>
		</g>
		<g>
			<path class="st5" d="M191.4,302.9c-0.9-0.1-1.9-0.3-2.8-0.7c-2.2-1-3.8-2.7-4.6-4.9l-23.4-64.1c-0.8-2.2-0.7-4.7,0.3-6.8
				c1-2.1,2.9-3.7,5.1-4.5l0,0c15.6-5.1,69-16.8,98.7,48.9l1.7,3.7l-71.1,27.9C194.1,302.8,192.8,303,191.4,302.9z M168.5,229.2
				c-0.3,0.1-0.4,0.3-0.5,0.4c-0.1,0.2-0.1,0.4,0,0.7l23.4,64.1c0.1,0.3,0.3,0.4,0.5,0.5s0.4,0.1,0.7,0l63.4-24.8
				C229.5,216.1,186.2,223.5,168.5,229.2L168.5,229.2z"/>
		</g>
		<g>
			<path class="st5" d="M687.7,679.1c-21-2-46.7-13.5-63.6-52.3l-1.6-3.8l69.4-26c2.2-0.8,4.6-0.7,6.8,0.3c2.1,1,3.7,2.8,4.5,5
				l21.7,62.3c0.8,2.3,0.6,4.7-0.5,6.8c-1.1,2.1-2.9,3.7-5.2,4.4l0,0C713.2,677.7,701.4,680.4,687.7,679.1z M633,627.4
				c24.8,52.6,66.8,46.2,83.9,40.9l0,0c0.3-0.1,0.4-0.3,0.5-0.4c0.1-0.2,0.2-0.4,0-0.7l-21.7-62.3c-0.1-0.3-0.3-0.5-0.5-0.5
				c-0.2-0.1-0.4-0.1-0.7,0L633,627.4z"/>
		</g>
		<g>
			<path class="st5" d="M582.3,722.9c-1-0.1-1.9-0.3-2.8-0.8c-2.2-1-3.8-2.8-4.5-5.1l-21.4-62.4c-0.8-2.2-0.6-4.6,0.5-6.7
				s2.9-3.7,5.1-4.4l70.6-22.5l1,4c17.8,67.6-29.5,91.6-44.5,97.3l0,0C585,722.9,583.7,723,582.3,722.9z M624.2,631L561.5,651
				c-0.3,0.1-0.5,0.3-0.5,0.5c-0.1,0.2-0.1,0.4,0,0.7l21.4,62.4c0.1,0.3,0.3,0.5,0.5,0.5c0.1,0.1,0.4,0.1,0.7,0
				C600.2,708.6,637.1,687.7,624.2,631z"/>
		</g>
		<g>
			<path class="st5" d="M258.6,377.6c-2.1-0.2-3.7-2.1-3.5-4.3c0.5-4.9-0.7-9-3.4-12.1c-2.4-2.7-5.9-4.4-9.7-4.8
				c-7.3-0.7-15.1,3.4-16.1,14c-0.2,2.1-2.1,3.7-4.3,3.5c-2.1-0.2-3.7-2.1-3.5-4.3c1.4-15.2,13.5-22.1,24.6-21.1
				s21.6,10.1,20.2,25.3C262.6,376.2,260.7,377.8,258.6,377.6z"/>
		</g>
		<g>
			<path class="st5" d="M381.7,398.9c-2.1-0.2-3.7-2.1-3.5-4.3c0.5-4.9-0.7-9-3.4-12.1c-2.4-2.7-5.9-4.4-9.7-4.8
				c-7.3-0.7-15.1,3.4-16.1,14c-0.2,2.1-2.1,3.7-4.3,3.5c-2.1-0.2-3.7-2.1-3.5-4.3c1.5-15.2,13.5-22.1,24.6-21.1
				s21.6,10.1,20.2,25.3C385.7,397.5,383.8,399.1,381.7,398.9z"/>
		</g>
		<g>
			<path class="st5" d="M288.2,493.4c-1.9-0.2-3.8-0.4-5.7-0.8c-17.9-3.2-33.4-12.8-43.6-27.2c-11.5-16.1-15.4-36.8-11.4-59.8
				c0.4-2.1,2.4-3.5,4.5-3.2c2.1,0.4,3.5,2.4,3.2,4.5c-3.7,20.9-0.2,39.5,10,53.9c9.1,12.7,22.8,21.2,38.7,24
				c29.2,5.2,64.3-10.3,72.5-56.5c0.4-2.1,2.4-3.5,4.5-3.2c2.1,0.4,3.5,2.4,3.2,4.5c-4.1,23-14.9,41.1-31.2,52.3
				C319.8,491,304.1,494.9,288.2,493.4z"/>
		</g>
		<g>
			<path class="st5" d="M638.5,411.4c-2-0.2-3.6-2-3.5-4.1c0.7-15.3,12.3-22.8,23.5-22.3c11.3,0.5,22.1,9,21.5,24.3
				c-0.1,2.1-1.9,3.8-4.1,3.7c-2.1-0.1-3.8-1.9-3.7-4.1c0.2-4.9-1.2-9-4-11.9c-2.5-2.6-6.1-4.1-10-4.3c-7.3-0.3-14.9,4.1-15.4,14.8
				c-0.1,2.1-1.9,3.8-4.1,3.7C638.7,411.4,638.6,411.4,638.5,411.4z"/>
		</g>
		<g>
			<path class="st5" d="M513.7,415.6c-2-0.2-3.6-2-3.5-4c0.4-9,4.5-14.2,7.8-17.1c4.3-3.6,9.8-5.5,15.7-5.2
				c5.8,0.3,11.2,2.6,15.2,6.5c3.1,3.1,6.7,8.7,6.3,17.7c-0.1,2.1-1.9,3.8-4.1,3.7c-2.1-0.1-3.8-1.9-3.7-4.1
				c0.5-10.7-6.8-15.8-14-16.1c-3.9-0.2-7.5,1-10.3,3.4c-3.1,2.6-4.8,6.6-5.1,11.5c-0.1,2.1-1.9,3.8-4.1,3.7
				C513.8,415.6,513.7,415.6,513.7,415.6z"/>
		</g>
		<g>
			<path class="st5" d="M589.3,522c-30.6-2.9-61-25.8-62.8-73.2c-0.1-2.1,1.6-4,3.8-4c2.2-0.1,4,1.6,4,3.8c1.7,46.9,34.4,67,64,65.9
				c29.6-1.1,60.7-23.6,59-70.4c-0.1-2.1,1.6-4,3.8-4c2.1-0.1,4,1.6,4,3.8c1.9,52.2-33.1,77.3-66.5,78.5
				C595.5,522.4,592.4,522.3,589.3,522z"/>
		</g>
	</g>
</g>
</svg>
